<?xml version="1.0" encoding="utf-8"?>
<!-- Designed by Vexels.com - 2019 All Rights Reserved - https://vexels.com/terms-and-conditions/  -->
<svg version="1.1" id="Capa_1" xmlns="http://www.w3.org/2000/svg" xmlns:xlink="http://www.w3.org/1999/xlink" x="0px" y="0px"
	 viewBox="0 0 1200 1200" enable-background="new 0 0 1200 1200" xml:space="preserve">
<g>
	<path fill="#FF3927" d="M1148.495,621.391c-1.415-16.226-3.992-32.874-7.664-49.476c-3.606-16.171-8.679-33.016-15.075-50.059
		c-22.683-60.285-62.294-117.511-114.539-165.501c-23.825-21.882-50.881-42.212-80.412-60.422
		c-27.234-16.83-57.652-32.027-90.404-45.159c-62.446-25.052-130.222-39.889-201.458-44.084
		c-12.975-0.761-26.067-1.151-38.905-1.151c-56.359,0-112.53,7.152-166.946,21.248c-32.285,8.369-64.784,19.792-96.593,33.949
		c-31.022,13.797-61.142,30.647-89.517,50.079c-27.944,19.138-53.944,40.944-77.282,64.814
		c-23.805,24.332-44.84,51.347-62.532,80.285c-17.865,29.212-31.961,60.909-41.903,94.214c-4.717,15.877-8.435,32.772-11.053,50.226
		c-1.167,7.801-2.105,15.922-2.871,24.829c-0.664,7.766-1.055,16.414-1.238,27.208c-0.107,7.193,0.107,14.882,0.7,24.92
		c0.497,8.156,1.359,16.784,2.633,26.386c2.283,16.952,5.783,33.954,10.398,50.536c8.74,31.53,22.288,62.938,40.269,93.356
		c15.43,26.138,34.695,51.738,57.267,76.08c21.284,22.917,46.057,44.718,73.635,64.794c25.382,18.479,53.696,35.349,84.16,50.145
		c13.32,6.452,28.146,12.813,45.331,19.442c3.348,1.283,6.691,2.531,10.064,3.754c7.03,2.612,14.37,5.184,21.826,7.649
		c31.56,10.444,65.266,18.539,100.179,24.073c33.391,5.275,68.36,8.009,103.932,8.131h1.927c33.031,0,67.401-2.709,102.147-8.045
		c69.03-10.632,134.651-32.24,195.047-64.221c61.396-32.504,115.786-76.4,157.273-126.946c10.393-12.66,20.325-26.259,29.531-40.411
		c8.532-13.122,16.734-27.66,24.373-43.211c15.06-30.703,25.96-63.105,32.397-96.304c3.063-15.816,5.138-32.788,6.173-50.455
		c0.467-8.171,0.654-16.257,0.553-24.038C1149.804,639.712,1149.332,630.997,1148.495,621.391z"/>
	<g>
		<path fill="none" d="M412.185,527.083c0.978,2.757,2.167,5.377,3.454,7.953c-1.081-2.803-2.28-5.556-3.543-8.282
			C412.127,526.864,412.154,526.974,412.185,527.083z"/>
		<path fill="#66CC66" d="M558.772,102.484c-3.003-2.232-6.178-3.601-9.921-4.022c-0.715-0.081-1.44-0.122-2.161-0.122
			c-6.493,0-13.214,3.135-16.932,8.532c-2.313,3.358-3.961,7.137-5.838,10.748c-1.811,3.48-3.617,6.959-5.372,10.449
			c-3.282,6.508-6.716,12.965-8.958,19.924c-2.521,7.832-3.941,16.216-4.788,24.398c-0.477,4.621-0.72,9.272-0.811,13.919
			c-1.243-0.558-2.496-1.096-3.779-1.583c-1.385-0.517-2.851-0.847-4.281-1.197c-3.454-0.872-6.736-1.659-10.241-2.156
			c-3.332-0.487-6.797-0.426-10.155-0.487c-3.566-0.061-7.127-0.096-10.693-0.218c-6.838-0.218-13.629-0.933-20.467-1.177
			c-9.637-0.33-19.549-0.086-28.689,3.251c-4.509,1.649-8.897,6.31-10.378,10.748c-1.948,5.863-1.659,13.452,2.825,18.276
			c2.318,2.485,4.92,4.692,7.538,6.848c4.08,3.367,8.508,6.313,12.846,9.346c1.512-0.405,3.026-0.837,4.537-1.229
			c12.64-3.276,25.378-6.16,38.187-8.683c-4.394-3.995-8.868-7.904-13.51-11.628c-6.427-5.174-12.879-10.363-19.224-15.663
			c0.161-0.019,0.326-0.038,0.491-0.057c-0.165,0.019-0.327,0.038-0.492,0.052c-0.005,0-0.005,0-0.005,0
			c0.167-0.014,0.334-0.033,0.501-0.052c0.011-0.001,0.022-0.002,0.033-0.004c1.131-0.117,2.267-0.238,3.404-0.36
			c-0.314,0.036-0.619,0.071-0.933,0.107c2.024-0.203,4.038-0.401,6.072-0.507c2.069-0.107,4.169,0.096,6.239,0.193
			c4.291,0.167,8.598,0.39,12.884,0.644c3.348,0.203,6.67,0.665,10.013,0.943c3.404,0.269,6.812,0.568,10.231,0.741
			c6.868,0.33,14.081,1.501,20.756-0.812c7.213-2.511,13.553-6.584,19.118-11.808c5.321-4.981,9.754-11.027,13.305-17.368
			c2.024-3.622,4.134-7.208,6.234-10.794c1.319-2.257,2.724-4.449,4.058-6.706c1.78-3.028,2.993-6.35,4.317-9.597
			c1.659-3.662,3.596-7.188,5.26-10.85c1.77-3.897,4.074-7.564,6.035-11.389c-0.246-0.769-0.493-1.536-0.718-2.301
			C564.423,107.84,561.222,104.289,558.772,102.484z M667.295,162.271c-0.233-2.049-1.03-4.027-1.755-5.95
			c-1.436-3.799-3.967-5.894-6.802-8.557c-3.287-3.089-7.695-3.966-11.89-4.9c-3.454-0.776-7.492-0.167-11.043,0.39
			c-3.038,0.472-6.021,1.212-9.003,2.009c-17.2,4.611-32.859,12.681-47.888,22.11c-2.181,1.375-4.378,2.759-6.553,4.18
			c-0.036-0.445-0.065-0.891-0.099-1.337l0.017,0.327c-0.015,0.071-0.025,0.157-0.041,0.243c-0.218,1.938-0.411,3.891-0.568,5.828
			c-0.01,0.193-0.036,0.385-0.051,0.583c-0.01,0.046-0.01,0.096-0.02,0.132c-0.076,0.34-0.157,0.69-0.066,1.03
			c-0.025,0.365-0.041,0.725-0.081,1.09c-0.035,0.462-0.061,0.923-0.061,1.395c-0.076,0.279-0.122,0.558-0.096,0.837
			c0,0.081,0.01,0.157,0.01,0.238c0.035,0.137,0.086,0.259,0.147,0.365c0.026,0.375,0.056,0.751,0.183,1.091
			c0.01,0.035,0.036,0.086,0.051,0.122c-0.015,0.279,0.081,0.593,0.248,0.801c0.101,0.096,0.188,0.183,0.304,0.243
			c0.061,0.036,0.122,0.061,0.168,0.096c0.112,0.02,0.208,0.035,0.309,0.046c0.152,0.025,0.325-0.026,0.472-0.061
			c0.182-0.061,0.34-0.132,0.507-0.228c0.243-0.137,0.472-0.289,0.705-0.451c0.487-0.315,0.918-0.665,1.354-1.015
			c0.558-0.451,1.141-0.862,1.735-1.248c0.33-0.208,0.654-0.426,0.969-0.644c0.279-0.183,0.543-0.376,0.827-0.568
			c0.243-0.122,0.492-0.259,0.736-0.401c0.705-0.401,1.395-0.822,2.085-1.228h0.01c0.401-0.203,0.812-0.411,1.217-0.614
			c1.537-0.791,3.074-1.578,4.616-2.364c2.46-1.253,4.956-2.425,7.451-3.601c0.051-0.025,0.112-0.035,0.162-0.061
			c0.462-0.142,0.903-0.315,1.354-0.472c0.446-0.172,0.882-0.35,1.319-0.532c0.041-0.025,0.091-0.036,0.132-0.061
			c0.436-0.132,0.878-0.294,1.298-0.497c0.243-0.086,0.487-0.193,0.731-0.304c0.68-0.289,1.364-0.583,2.059-0.847
			c1.116-0.462,2.262-0.837,3.429-1.222c5.067-1.532,10.241-2.754,15.369-4.099c5.331-1.405,10.763-2.511,16.252-3.043
			c0.243-0.025,0.487-0.035,0.73-0.061c3.911-0.02,7.827,0.548,11.671,1.309c1.278,0.365,2.552,0.801,3.815,1.273
			c1.562,0.583,3.165,1.141,4.702,1.821c1.77,1.004,3.505,2.095,5.128,3.322c0.35,0.396,0.69,0.832,1.02,1.268
			c0.642,1.18,1.187,2.404,1.763,3.619C667.52,169.544,667.815,166.973,667.295,162.271z"/>
		<path fill="#449247" d="M666.334,173.676c-0.577-1.215-1.121-2.439-1.763-3.619c-0.33-0.436-0.67-0.873-1.02-1.268
			c-1.623-1.228-3.358-2.318-5.128-3.322c-1.537-0.68-3.14-1.238-4.702-1.821c-1.263-0.472-2.536-0.908-3.815-1.273
			c-3.845-0.761-7.761-1.329-11.671-1.309c-0.243,0.026-0.487,0.036-0.73,0.061c-5.488,0.533-10.921,1.638-16.252,3.043
			c-5.128,1.344-10.302,2.567-15.369,4.099c-1.167,0.385-2.313,0.761-3.429,1.222c-0.695,0.264-1.38,0.558-2.059,0.847
			c-0.243,0.112-0.487,0.218-0.731,0.304c-0.421,0.203-0.862,0.365-1.298,0.497c-0.041,0.025-0.091,0.036-0.132,0.061
			c-0.436,0.183-0.872,0.36-1.319,0.532c-0.452,0.157-0.893,0.33-1.354,0.472c-0.051,0.026-0.112,0.035-0.162,0.061
			c-2.496,1.177-4.991,2.349-7.451,3.601c-1.542,0.786-3.079,1.572-4.616,2.364c-0.406,0.203-0.817,0.411-1.217,0.614h-0.01
			c-0.69,0.406-1.38,0.827-2.085,1.228c-0.243,0.142-0.492,0.279-0.736,0.401c-0.284,0.193-0.548,0.385-0.827,0.568
			c-0.314,0.218-0.639,0.436-0.969,0.644c-0.594,0.385-1.177,0.796-1.735,1.248c-0.436,0.35-0.867,0.7-1.354,1.015
			c-0.233,0.162-0.462,0.314-0.705,0.451c-0.168,0.096-0.325,0.167-0.507,0.228c-0.147,0.035-0.32,0.086-0.472,0.061
			c-0.101-0.01-0.198-0.026-0.309-0.046c-0.046-0.036-0.107-0.061-0.168-0.096c-0.117-0.061-0.203-0.147-0.304-0.243
			c-0.167-0.208-0.264-0.523-0.248-0.801c-0.015-0.035-0.041-0.086-0.051-0.122c-0.127-0.34-0.157-0.715-0.183-1.091
			c-0.061-0.107-0.112-0.228-0.147-0.365c0-0.081-0.01-0.157-0.01-0.238c-0.025-0.279,0.02-0.558,0.096-0.837
			c0-0.472,0.025-0.933,0.061-1.395c0.041-0.365,0.056-0.725,0.081-1.09c-0.091-0.34-0.01-0.69,0.066-1.03
			c0.01-0.035,0.01-0.086,0.02-0.132c0.015-0.198,0.04-0.391,0.051-0.583c0.157-1.938,0.35-3.89,0.568-5.828
			c0.015-0.086,0.026-0.172,0.041-0.243l-0.017-0.327l-0.109-2.087c-0.238-3.429-0.456-6.848-0.675-10.277
			c-0.269-4.352-0.548-8.714-0.862-13.066c-0.396-5.331-1.177-10.921-1.806-15.405l-0.259-1.912
			c-0.167-1.258-0.335-2.531-0.502-3.794l-0.137-1.02c-0.183-1.344-0.35-2.688-0.497-4.037c-0.198-1.902-0.781-3.754-1.354-5.554
			c-0.012,0.023-0.025,0.046-0.037,0.069c-1.961,3.825-4.265,7.492-6.035,11.389c-1.664,3.662-3.601,7.188-5.26,10.85
			c-1.324,3.246-2.536,6.569-4.317,9.597c-1.334,2.257-2.739,4.449-4.058,6.706c-2.1,3.586-4.21,7.172-6.234,10.794
			c-3.551,6.34-7.984,12.387-13.305,17.368c-5.564,5.225-11.905,9.297-19.118,11.808c-6.675,2.313-13.888,1.141-20.756,0.812
			c-3.419-0.173-6.827-0.472-10.231-0.741c-3.343-0.279-6.665-0.74-10.013-0.943c-4.286-0.254-8.593-0.477-12.884-0.644
			c-2.07-0.096-4.169-0.299-6.239-0.193c-2.034,0.106-4.048,0.304-6.072,0.507c0.315-0.035,0.619-0.071,0.933-0.107
			c-1.136,0.122-2.272,0.243-3.404,0.36c-0.011,0.001-0.022,0.002-0.033,0.004c-0.167,0.019-0.334,0.038-0.501,0.052
			c0,0,0,0,0.005,0c0.166-0.014,0.327-0.033,0.492-0.052c-0.165,0.019-0.331,0.038-0.491,0.057
			c6.346,5.301,12.798,10.489,19.224,15.663c4.643,3.725,9.117,7.633,13.51,11.628c42.347-8.342,85.506-12.575,128.785-12.575
			c12.553,0,25.354,0.365,38.07,1.108c0.028,0.002,0.057,0.003,0.085,0.004c4.291-3.324,8.427-6.971,12.33-10.894
			c0.654-0.68,1.329-1.344,2.024-2.024l0.705-0.68c4.956-4.839,10.094-9.83,12.25-16.434c0.172-0.522,0.34-1.03,0.497-1.537
			c0.137-0.451,0.269-0.878,0.38-1.273C666.355,173.722,666.345,173.699,666.334,173.676z"/>
	</g>
	<path fill="#FF513F" d="M474.176,992.257c-2.937-1.243-5.874-2.491-8.74-3.916c-4.225-2.521-8.298-5.209-12.204-8.227
		c-5.138-3.951-10.084-8.156-15.1-12.28c-9.977-8.192-19.955-16.379-29.491-25.093c-5.103-4.986-10.084-10.084-14.933-15.349
		c-5.864-6.386-11.9-12.676-17.16-19.589c-5.417-7.112-10.266-14.527-15.329-21.882c-4.078-5.935-8.141-11.849-12.006-17.916
		c-7.335-12.635-13.411-25.808-19.387-39.133c-3.175-7.096-6.422-14.157-9.308-21.37c-2.785-6.969-5.179-14.04-7.401-21.192
		c-5.625-20.107-10.804-40.361-14.426-60.934c-3.282-18.631-4.073-37.662-4.509-56.562c-0.056-8.872,0.112-17.713,0.411-26.589
		c0.147-4.606,0.324-9.221,0.593-13.817c0.375-6.315,1.045-12.909-0.604-19.062c-0.634-4.063-2.242-7.7-4.814-10.901
		c-2.521-3.074-5.635-5.372-9.323-6.848c-2.658-1.055-5.473-1.562-8.273-1.562c-7.142,0-14.213,3.302-18.484,9.272
		c-4.073,5.671-6.254,11.803-7.091,18.722c-0.436,3.586-0.583,7.213-0.69,10.824c-0.233,7.299-0.593,14.593-0.609,21.902
		c-0.01,9.318,0.173,18.641,0.497,27.949c0.269,7.416,0.462,14.872,1.116,22.262c1.405,15.745,3.419,31.307,6.969,46.727
		c4.098,17.789,9.079,35.253,14.421,52.707c4.753,15.501,10.971,30.348,18.23,44.829c3.48,6.934,6.822,13.939,10.591,20.71
		c4.743,8.547,9.734,16.982,15.166,25.093c3.951,5.914,8.532,11.255,13.026,16.749c5.199,6.361,10.266,12.848,15.648,19.062
		c10.992,12.716,23.901,23.84,37.606,33.528c12.706,8.968,25.884,17.195,39.519,24.662c3.515,1.983,7.005,4.002,10.454,6.082
		c4.651,2.825,8.968,6.133,13.756,8.755c7.877,4.286,15.947,8.268,24.215,11.753c5.219,2.222,11.463-0.664,13.513-5.838
		C482.16,1000.403,479.401,994.473,474.176,992.257z M1111.239,648.691c-0.249-0.02-0.497-0.03-0.746-0.03
		c-4.382,0-8.42,3.449-8.729,7.943c-0.234,3.323-0.477,6.655-0.827,9.967c-0.33,3.211-0.964,6.345-1.628,9.485
		c-2.501,10.312-5.767,20.386-8.938,30.51c-3.454,11.037-6.62,22.166-10.231,33.158c-3.82,11.601-8.233,23.003-12.808,34.335
		c-4.438,10.997-8.471,22.166-13.827,32.767c-2.024,3.495-4.337,6.822-6.564,10.175c-2.906,4.408-5.696,8.882-8.603,13.295
		c-5.154,7.827-10.931,15.126-16.637,22.547c-5.326,6.919-10.692,13.736-16.328,20.416c-2.835,3.373-5.6,6.792-8.384,10.211
		c-1.775,2.176-3.52,4.383-5.25,6.589c-0.715,0.933-1.446,1.856-2.181,2.775c-0.391,0.472-0.72,0.959-1.055,1.466
		c-2.206,3.312-2.729,5.783-3.48,9.627c-0.827,4.18,1.228,9.293,3.804,12.468c3.738,4.596,10.424,7.527,16.353,6.148
		c3.48-0.812,6.746-1.77,9.414-4.317c1.76-1.674,3.378-3.419,4.859-5.321c1.466-1.877,2.815-3.845,4.2-5.767
		c2.455-3.404,4.834-6.863,7.198-10.317c4.215-6.163,8.77-12.093,13.051-18.215c4.545-6.533,9.247-12.955,13.68-19.564
		c5.392-7.989,9.896-16.637,14.416-25.144c1.593-2.962,3.175-5.935,4.758-8.902c1.811-3.378,3.094-6.964,4.367-10.566
		c2.982-8.41,5.889-16.835,8.881-25.23c2.937-8.217,5.6-16.536,8.268-24.839c2.714-8.496,4.819-17.063,6.756-25.767
		c1.395-5.955,2.81-11.9,4.149-17.86c-0.035,0.152-0.071,0.304-0.111,0.456c1.05-4.601,1.988-9.221,2.937-13.837
		c1.111-5.397,2.293-10.799,3.272-16.216c0.994-5.478,1.841-10.961,2.48-16.495c0.634-5.463,1.02-10.966,1.4-16.46
		C1119.482,653.428,1116.063,649.127,1111.239,648.691z"/>
	<g>
		<path fill="none" d="M412.097,526.755c0.03,0.109,0.057,0.219,0.088,0.329c0.978,2.757,2.167,5.377,3.454,7.953
			C414.558,532.234,413.358,529.48,412.097,526.755z"/>
		<path fill="#DA3021" d="M791.002,957.81c2.12,0.801,5.189,0.969,7.213-0.244c8.486-5.052,17.053-9.947,25.367-15.283
			c7.203-4.606,14.086-9.683,21.065-14.618c3.348-2.369,4.195-7.38,2.567-10.956c-1.461-3.221-4.996-5.473-8.537-5.473
			c-1.248,0-2.496,0.279-3.652,0.893c-5.646,2.998-10.84,6.777-16.049,10.454c-4.175,2.932-8.446,5.737-12.762,8.466
			c-5.25,3.135-10.53,6.224-15.79,9.359c-2.242,1.334-3.962,2.714-4.925,5.27c-0.872,2.328-0.786,4.946,0.244,7.198
			C786.772,955.142,788.679,956.937,791.002,957.81z"/>
		<path fill="#DA3021" d="M617.387,728.327c-4.002,0.847-7.563,2.688-11.255,4.347c-2.653,1.197-5.382,2.196-8.131,3.119
			c-2.932,0.791-5.828,1.39-8.856,1.643c-1.451-0.025-2.871-0.122-4.312-0.325c-1.562-0.477-3.048-1.101-4.53-1.791
			c-1.669-1.03-3.221-2.12-4.697-3.383c-1.983-2.227-3.809-4.555-5.641-6.908c-1.598-2.049-4.048-3.084-6.513-3.084
			c-1.907,0-3.82,0.619-5.357,1.856c-3.621,2.947-4.032,8.232-1.222,11.854c1.527,1.968,3.018,3.941,4.616,5.844
			c1.724,2.049,3.652,3.865,5.661,5.635c1.699,1.481,3.662,2.653,5.615,3.784c1.38,0.796,2.795,1.502,4.23,2.202
			c2.932,1.43,6.3,2.014,9.511,2.379c5.199,0.604,10.535-0.132,15.638-1.106c2.019-0.375,4.068-0.888,6.046-1.456
			c2.826-0.822,5.646-1.659,8.41-2.688c2.328-0.862,4.383-1.963,6.543-3.185c1.578-0.72,2.886-1.786,3.916-3.191
			c1.547-2.13,2.191-4.869,1.745-7.477C627.923,731.249,622.663,727.222,617.387,728.327z"/>
		<path fill="#DA3021" d="M1148.549,621.382c-1.405-16.16-3.987-32.808-7.659-49.486c-3.627-16.201-8.709-33.051-15.1-50.069
			c-22.679-60.285-62.283-117.516-114.534-165.521c-23.83-21.892-50.891-42.212-80.442-60.432
			c-27.299-16.871-57.713-32.068-90.399-45.154c-62.466-25.067-130.253-39.899-201.484-44.094c-0.25-0.015-0.501-0.024-0.75-0.039
			c-0.028-0.002-0.057-0.003-0.085-0.004c-12.716-0.743-25.516-1.108-38.07-1.108c-43.279,0-86.437,4.233-128.785,12.575
			c-12.809,2.523-25.546,5.407-38.187,8.683c-1.512,0.392-3.025,0.824-4.537,1.229c-30.847,8.264-61.791,19.249-92.05,32.715
			c-31.048,13.807-61.168,30.652-89.527,50.079c-27.959,19.153-53.97,40.959-77.303,64.819
			c-23.804,24.337-44.839,51.352-62.522,80.31c-17.865,29.181-31.961,60.888-41.913,94.219c-4.717,15.79-8.435,32.696-11.068,50.247
			c-1.161,7.781-2.095,15.902-2.871,24.824c-0.644,7.624-1.04,16.262-1.238,27.208c-0.106,7.319,0.112,15.004,0.705,24.93
			c0.487,8.146,1.344,16.774,2.632,26.381c2.278,16.947,5.778,33.954,10.409,50.556c8.724,31.509,22.278,62.912,40.274,93.356
			c15.44,26.168,34.7,51.763,57.267,76.101c21.045,22.648,45.438,44.175,72.504,63.967c-3.611-6.102-6.751-12.493-9.759-18.905
			c-34.554-73.694-51.836-163.313-46.806-244.414c4.882-78.716,35.181-147.817,83.723-209.018
			c4.134-5.22,8.076-10.672,12.909-15.278c9.054-8.618,18.048-16.789,29.932-21.405c5.32-2.059,11.015-4.012,16.568-5.371
			c20.32-4.974,40.729-3.918,57.584,9.961c-7.914,9.748-14.654,20.447-20.032,31.795c-4.112,8.679-6.712,19.364,2.054,26.35
			c4.166,3.32,10.047,4.352,15.094,2.649c9.217-3.109,13.506-13.438,16.695-22.628c-4.384,12.635,6.322,35.58,12.818,45.689
			c1.198,1.865,2.521,3.807,2.618,6.022c0.127,2.874-1.812,5.363-3.458,7.723c-8.286,11.884-11.033,27.468-7.31,41.469
			c3.722,14.001,13.846,26.163,26.94,32.363c2.797,1.324,5.906,2.547,7.531,5.18c1.313,2.127,1.384,4.766,1.412,7.265
			c0.37,33.474-0.181,67.123,4.865,100.217c5.045,33.094,16.089,66.032,37.228,91.992c24.104,29.598,34.06-22.74,37.823-39.299
			c10.15-44.662,24.101-88.459,41.654-130.763c9.606,18.145,32.669,27.938,52.395,22.247c17.902-5.165,30.696-20.622,41.462-35.828
			c4.684-6.616,9.334-13.649,10.503-21.67c2.41-16.535-13.321-27.55-27.124-16.939c-6.365,4.893-17.522,36.286-23.382,36.752
			c8.91-0.708,17.232-6.532,20.95-14.66c2.394-5.233,2.954-11.174,5.482-16.343c2.529-5.169,8.284-9.643,13.727-7.777
			c7.081,2.428,7.226,12.432,5.024,19.587c-7.019,22.796-27.176,43.311-51.025,42.927c-23.797-0.384-43.308-21.533-49.261-44.576
			c-1.225-4.741-1.611-10.69,2.315-13.617c3.555-2.651,8.946-1.074,11.907,2.227c2.96,3.301,4.102,7.801,5.145,12.11
			c-2.138-8.828,22.644-34.257,29.091-40.046c12.49-11.216,36.655-14.541,44.393-29.576c-18.88-15.629-29.311-40.909-26.945-65.304
			c2.946-30.371,25.14-56.915,54.488-65.118c39.91-11.154,81.366,12.194,92.52,52.099c5.699,20.39,2.21,42.605-8.741,60.661
			c8.469,2.68,16.245,8.162,20.594,15.907s4.857,17.812,0.298,25.436c-4.938,8.258-14.53,12.38-23.678,15.363
			c-25.231,8.229-51.99,11.749-78.491,10.325c9.136,45.566,20.227,90.74,33.234,135.355c1.903,6.528,4.664,13.934,11.1,16.127
			c4.701,1.601,9.88-0.224,14.199-2.677c28.383-16.122,40.645-58.767,46.52-88.709c1.091-5.559,2.085-11.134,2.906-16.739
			c2.262-15.207,3.338-30.465,3.957-45.808c0.619-15.572,2.521-30.992,2.277-46.615c-0.244-14.989-1.674-30.17-0.244-45.134
			c2.695-28.529,23.693-57.555,55.673-49.371c17.04,4.36,30.582,17.181,41.786,30.74c17.522,21.205,31.214,45.212,43.392,69.794
			c5.655,11.419,28.102,77.243,47.54,63.915c3.226-2.212,5.075-5.908,6.539-9.535c10.121-25.071,5.122-49.462-1.324-74.629
			c-5.618-21.935-14.552-52.451,0.251-72.518c12.234-16.585,37.173-22.721,55.665-13.43c5.214,2.628,9.475,4.616,13.767,8.314
			c47.094,40.585,77.844,104.551,93.422,163.862c2.06,7.842,2.379,15.902,2.643,23.972c0.218-2.749,0.411-5.514,0.568-8.303
			c0.462-8.177,0.644-16.262,0.558-24.043C1149.857,639.825,1149.396,631.115,1148.549,621.382z M407.428,465.628
			c-2.445,2.81-4.839,5.64-7.213,8.511c-2.455,2.993-4.509,6.249-6.472,9.592c-1.623,2.785-5.681,3.317-8.222,1.603
			c-2.8-1.907-3.221-5.443-1.593-8.237c1.953-3.333,3.901-6.66,6.051-9.871c2.141-3.226,4.443-6.34,6.838-9.389
			c5.097-6.492,10.139-13.031,15.856-19.006c6.584-6.858,13.934-13.021,21.689-18.529c7.801-5.529,16.201-10.231,24.459-15.034
			c3.743-2.186,7.7-3.88,11.697-5.534c4.666-1.938,9.49-3.789,14.43-4.854c4.479-0.964,8.973-1.583,13.523-2.049
			c2.47-0.254,4.93-0.553,7.39-0.842c1.963-0.223,4.032-0.538,6.066-0.538c1.872,0,3.723,0.264,5.427,1.116
			c2.085,0.73,3.84,1.927,5.296,3.566c0.599,0.888,1.197,1.775,1.795,2.658c0.994,2.019,1.425,4.159,1.283,6.406
			c-0.152,2.252-0.852,4.312-2.115,6.183c-1.228,1.811-2.815,3.206-4.763,4.19c-3.525,2.217-7.796,1.841-11.773,1.917
			c-2.293,0.046-4.585,0.122-6.878,0.122c-3.84-0.01-7.654-0.086-11.479,0.056c-6.102,0.73-12.082,2.516-17.921,4.418
			c-6.295,2.318-12.402,5.346-18.413,8.293c-6.711,3.292-13.071,7.127-19.295,11.24c-4.753,3.302-9.323,6.903-13.472,10.946
			C415.347,456.721,411.395,461.185,407.428,465.628z M551.725,577.42c1.207,0.978,2.452,2.021,3.635,3.15
			c1.248,1.202,2.191,2.562,3.049,3.85c1.207,1.857,2.024,3.82,2.77,5.98l-0.193-0.68c0.172,0.482,0.365,0.964,0.558,1.44
			c0.548,1.375,1.111,2.79,1.359,4.251c0.304,1.781,0.487,3.642,0.543,5.534c0.112,3.815-1.09,7.979-3.216,11.139
			c-2.095,3.099-4.661,5.879-7.421,8.045c-6.208,4.88-13.634,7.502-20.736,9.602l-2.227,0.685c-2.151,0.669-4.377,1.354-6.63,1.821
			c-1.887,0.385-3.789,0.705-5.686,1.025c-1.167,0.198-2.328,0.391-3.49,0.604c-5.676,1.05-11.788,2.12-18.012,2.84
			c-4.976,0.578-10.069,0.797-14.994,1.009c-1.958,0.086-3.916,0.167-5.874,0.274c-2.729,0.152-5.539,0.228-8.349,0.228
			c-3.952,0-8.009-0.147-12.067-0.451c-3.966-0.299-7.979-0.852-12.26-1.694l-0.548-0.107c-2.81-0.563-5.727-1.141-8.476-2.156
			c-3.52-1.304-7.218-2.754-10.348-4.91c-2.166-1.506-3.906-2.952-5.311-4.418c-0.842-0.867-2.009-2.232-2.765-3.784
			c-0.624-1.278-1.283-2.8-1.445-4.357l-0.051-0.502c-0.147-1.354-0.289-2.749-0.112-4.114c0.152-1.243,0.375-2.47,0.619-3.698
			c0.421-2.146,1.314-4.103,2.262-6.087c1.339-2.774,3.454-5.559,6.28-8.268c2.881-2.749,6.31-4.839,9.566-6.741l0.304-0.183
			c2.556-1.501,5.199-3.043,7.867-4.458c1.762-0.93,3.59-1.702,5.481-2.458c-9.506-9.023-16.777-20.641-20.559-34.173
			c-11.149-39.904,12.194-81.36,52.098-92.514c39.904-11.154,81.361,12.194,92.52,52.098
			C577.271,531.727,569.466,558.882,551.725,577.42z M771.031,436.402c-2.947,2.582-7.101,2.039-9.744-0.644
			c-1.06-1.08-2.11-2.166-3.211-3.216c-2.039-1.669-4.22-3.094-6.534-4.352c-3.358-1.542-6.837-2.648-10.434-3.591
			c-3.388-0.888-6.807-1.841-10.241-2.617c-3.424-0.593-6.848-1.253-10.271-1.78c-2.161-0.335-4.322-0.421-6.483-0.634
			c-2.075-0.208-4.134-0.507-6.193-0.72c-4.657-0.467-9.318-0.7-13.985-0.974c-2.896-0.177-5.787-0.249-8.679-0.162
			c-4.068,0.497-7.994,1.496-11.89,2.739c-1.319,0.492-2.638,1.03-3.85,1.659c-5.331,2.724-12.057,1.329-15.978-3.135
			c-1.542-1.765-2.547-3.794-3.038-6.087c-0.477-2.404-0.32-4.753,0.466-7.071c1.354-5.651,6.67-10.419,11.849-12.656
			c3.621-1.562,7.38-2.912,11.19-3.967c5.031-1.39,10.165-1.907,15.313-1.907c4.023,0,8.055,0.315,12.067,0.786
			c6.021,0.71,11.961,1.821,17.845,3.272c2.308,0.563,4.585,1.121,6.797,2.014c1.781,0.72,3.531,1.562,5.296,2.338
			c3.033,1.344,6.026,2.795,8.963,4.337c1.719,0.908,3.216,2.09,4.732,3.292c2.982,2.338,6.041,4.585,9.064,6.858
			c3.312,2.491,6.584,5.118,9.485,8.09c2.714,2.78,5.377,5.615,8.09,8.39C774.298,429.352,773.735,434.018,771.031,436.402z"/>
		<path fill="#DA3021" d="M946.411,888.061c-2.739-3.378-7.294-5.539-11.763-5.539c-2.014,0-4.007,0.441-5.808,1.4
			c-1.978,1.055-3.87,2.222-5.64,3.591c-1.395,1.091-3.14,3.221-4.352,4.804c-1.38,1.765-2.724,3.546-4.165,5.27
			c-3.251,3.911-6.584,7.74-10.028,11.474c-6.467,7.005-12.904,14.045-19.376,21.045c-8.38,8.527-17.028,16.942-26.265,24.515
			c-9.663,7.903-19.493,15.481-29.876,22.425c-7.528,4.53-15.187,8.633-23.307,12.082c-7.933,3.373-16.12,6.061-24.327,8.674
			c-1.41,0.426-2.825,0.847-4.235,1.273c-2.668,0.791-4.824,1.709-6.534,4.063c-1.618,2.206-2.267,5.027-1.811,7.72
			c0.452,2.602,1.928,4.991,4.063,6.543c2.004,1.446,5.26,2.536,7.735,1.806c5.767-1.73,11.509-3.5,17.261-5.296
			c12.96-3.916,25.752-8.055,37.748-14.456c12.752-6.812,24.941-14.512,36.937-22.562c2.942-1.958,5.914-3.86,8.74-5.97
			c3.008-2.247,5.914-4.611,8.811-6.995c4.885-4.032,9.942-7.999,14.563-12.336c5.148-4.839,10.251-9.724,15.328-14.618
			c4.809-4.631,9.658-9.211,14.274-14.035c5.641-5.899,12.28-12.194,14.385-20.376c0.939-2.495,1.182-5.062,0.746-7.685
			C949.064,892.332,948.024,890.07,946.411,888.061z"/>
		<path fill="#FFB3B3" d="M692.702,633.298c1.958-0.107,3.921-0.188,5.873-0.274c4.925-0.213,10.018-0.431,14.994-1.014
			c6.224-0.715,12.336-1.786,18.012-2.835c1.161-0.213,2.323-0.406,3.49-0.604c1.897-0.32,3.799-0.644,5.691-1.025
			c2.247-0.467,4.474-1.151,6.624-1.821l2.232-0.685c7.096-2.1,14.522-4.722,20.731-9.602c2.759-2.166,5.326-4.945,7.421-8.045
			c2.125-3.16,3.327-7.324,3.216-11.139c-0.056-1.897-0.238-3.754-0.543-5.534c-0.249-1.461-0.812-2.876-1.36-4.251
			c-0.193-0.477-0.38-0.959-0.558-1.44l0.193,0.68c-0.745-2.161-1.557-4.124-2.769-5.985c-0.857-1.283-1.801-2.643-3.049-3.845
			c-1.365-1.304-2.82-2.511-4.19-3.617c-3.279-2.64-7.304-4.429-12.427-5.546c-9.602,14.868-24.447,26.431-42.817,31.565
			c-24.251,6.775-49.061,0.797-67.309-13.88c-2.107,1.345-4.181,2.817-6.026,4.574c-2.83,2.714-4.94,5.498-6.274,8.273
			c-0.266,0.551-0.523,1.101-0.77,1.653c-0.642,1.433-1.193,2.883-1.497,4.429c-0.243,1.233-0.467,2.46-0.624,3.703
			c-0.173,1.364-0.031,2.759,0.117,4.114l0.051,0.502c0.162,1.557,0.822,3.079,1.446,4.357c0.761,1.552,1.922,2.917,2.764,3.784
			c1.41,1.466,3.145,2.911,5.311,4.413c3.13,2.161,6.827,3.612,10.348,4.915c2.749,1.009,5.666,1.593,8.476,2.156l0.553,0.107
			c4.276,0.842,8.288,1.395,12.26,1.694c0.614,0.046,1.225,0.064,1.838,0.103c3.438,0.218,6.872,0.348,10.229,0.348
			C687.163,633.527,689.973,633.451,692.702,633.298z"/>
		<path fill="#FFB3B3" d="M445.81,579.832c-1.891,0.757-3.719,1.529-5.481,2.458c-2.668,1.415-5.311,2.957-7.867,4.458l-0.304,0.183
			c-3.256,1.902-6.685,3.992-9.566,6.741c-2.825,2.709-4.941,5.493-6.28,8.268c-0.948,1.983-1.841,3.941-2.262,6.087
			c-0.244,1.228-0.467,2.455-0.619,3.698c-0.177,1.364-0.035,2.759,0.112,4.114l0.051,0.502c0.162,1.557,0.822,3.079,1.445,4.357
			c0.756,1.552,1.922,2.917,2.765,3.784c1.405,1.466,3.145,2.911,5.311,4.418c3.13,2.156,6.828,3.607,10.348,4.91
			c2.749,1.014,5.666,1.593,8.476,2.156l0.548,0.107c4.281,0.842,8.293,1.395,12.26,1.694c4.058,0.304,8.116,0.451,12.067,0.451
			c2.81,0,5.62-0.076,8.349-0.228c1.958-0.107,3.916-0.188,5.874-0.274c4.925-0.213,10.018-0.431,14.994-1.009
			c6.224-0.72,12.336-1.79,18.012-2.84c1.162-0.213,2.323-0.406,3.49-0.604c1.897-0.32,3.799-0.639,5.686-1.025
			c2.253-0.467,4.479-1.151,6.63-1.821l2.227-0.685c7.101-2.1,14.527-4.722,20.736-9.602c2.76-2.166,5.326-4.945,7.421-8.045
			c2.126-3.16,3.328-7.324,3.216-11.139c-0.055-1.892-0.238-3.753-0.543-5.534c-0.248-1.461-0.811-2.876-1.359-4.251
			c-0.193-0.477-0.385-0.959-0.558-1.44l0.193,0.68c-0.746-2.161-1.563-4.124-2.77-5.98c-0.857-1.288-1.801-2.648-3.049-3.85
			c-1.183-1.13-2.427-2.172-3.635-3.15c-8.993,9.397-20.531,16.587-33.954,20.337C491.391,605.13,464.344,597.424,445.81,579.832z"
			/>
		<path fill="#FFFFFF" d="M483.752,494.401c-7.953,3.246-11.773,12.331-8.527,20.274c3.241,7.953,12.326,11.773,20.275,8.532
			c7.948-3.246,11.768-12.331,8.527-20.279C500.78,494.985,491.696,491.16,483.752,494.401z"/>
		<path fill="#FFFFFF" d="M717.554,499.197c-3.693-9.049-14.035-13.401-23.085-9.714c-9.049,3.693-13.401,14.035-9.713,23.089
			c3.692,9.049,14.035,13.401,23.084,9.708C716.894,518.588,721.246,508.246,717.554,499.197z"/>
		<path fill="#FFFFFF" d="M477.349,453.144c-39.904,11.154-63.247,52.61-52.098,92.514c3.781,13.532,11.053,25.15,20.559,34.173
			c18.534,17.593,45.582,25.298,71.961,17.925c13.423-3.75,24.961-10.94,33.954-20.337c17.742-18.538,25.546-45.693,18.144-72.178
			C558.71,465.338,517.253,441.99,477.349,453.144z M510.449,577.457c-26.813,7.497-54.665-8.192-62.162-35.004
			c-7.492-26.813,8.187-54.665,35.004-62.157c26.813-7.497,54.665,8.187,62.157,34.999
			C552.945,542.108,537.262,569.961,510.449,577.457z"/>
		<path fill="#FFFFFF" d="M713.467,598.282c18.37-5.134,33.215-16.697,42.817-31.565c11.258-17.434,15.302-39.415,9.281-60.955
			c-11.154-39.904-52.61-63.252-92.52-52.098c-39.904,11.154-63.247,52.61-52.093,92.519c4.376,15.656,13.427,28.744,25.206,38.218
			C664.405,599.079,689.216,605.057,713.467,598.282z M645.163,541.056c-7.492-26.818,8.187-54.67,35.004-62.162
			c26.813-7.492,54.664,8.192,62.157,35.004c7.497,26.813-8.192,54.66-34.999,62.157
			C680.512,583.552,652.66,567.869,645.163,541.056z"/>
		<path d="M763.57,418.274c-2.901-2.972-6.173-5.6-9.485-8.09c-3.023-2.272-6.082-4.52-9.064-6.858
			c-1.517-1.202-3.013-2.384-4.732-3.292c-2.937-1.542-5.93-2.993-8.963-4.337c-1.765-0.776-3.515-1.618-5.296-2.338
			c-2.211-0.893-4.489-1.451-6.797-2.014c-5.884-1.451-11.824-2.562-17.845-3.272c-4.012-0.472-8.044-0.786-12.067-0.786
			c-5.148,0-10.282,0.517-15.313,1.907c-3.809,1.055-7.568,2.404-11.19,3.967c-5.179,2.237-10.495,7.005-11.849,12.656
			c-0.786,2.318-0.944,4.667-0.466,7.071c0.492,2.293,1.496,4.322,3.038,6.087c3.921,4.464,10.647,5.859,15.978,3.135
			c1.212-0.629,2.531-1.167,3.85-1.659c3.896-1.243,7.821-2.242,11.89-2.739c2.891-0.086,5.782-0.015,8.679,0.162
			c4.667,0.274,9.328,0.507,13.985,0.974c2.059,0.213,4.119,0.512,6.193,0.72c2.161,0.213,4.321,0.299,6.483,0.634
			c3.424,0.528,6.847,1.187,10.271,1.78c3.434,0.776,6.853,1.73,10.241,2.617c3.597,0.943,7.076,2.049,10.434,3.591
			c2.313,1.258,4.495,2.683,6.534,4.352c1.101,1.05,2.151,2.135,3.211,3.216c2.643,2.683,6.797,3.226,9.744,0.644
			c2.704-2.384,3.267-7.051,0.629-9.739C768.947,423.889,766.284,421.053,763.57,418.274z"/>
		<path d="M433.095,441.616c6.224-4.114,12.585-7.948,19.295-11.24c6.011-2.947,12.118-5.975,18.413-8.293
			c5.839-1.902,11.819-3.688,17.921-4.418c3.825-0.142,7.639-0.066,11.479-0.056c2.293,0,4.585-0.076,6.878-0.122
			c3.977-0.076,8.248,0.299,11.773-1.917c1.948-0.984,3.536-2.379,4.763-4.19c1.263-1.872,1.963-3.931,2.115-6.183
			c0.142-2.247-0.289-4.388-1.283-6.406c-0.599-0.883-1.197-1.77-1.795-2.658c-1.456-1.638-3.211-2.835-5.296-3.566
			c-1.704-0.852-3.556-1.116-5.427-1.116c-2.034,0-4.103,0.314-6.066,0.538c-2.46,0.289-4.92,0.588-7.39,0.842
			c-4.55,0.467-9.044,1.086-13.523,2.049c-4.94,1.065-9.764,2.917-14.43,4.854c-3.997,1.654-7.954,3.348-11.697,5.534
			c-8.258,4.803-16.657,9.505-24.459,15.034c-7.756,5.509-15.105,11.671-21.689,18.529c-5.717,5.975-10.759,12.514-15.856,19.006
			c-2.394,3.049-4.697,6.163-6.838,9.389c-2.15,3.211-4.098,6.538-6.051,9.871c-1.628,2.795-1.207,6.33,1.593,8.237
			c2.541,1.715,6.599,1.182,8.222-1.603c1.963-3.343,4.017-6.599,6.472-9.592c2.374-2.871,4.768-5.701,7.213-8.511
			c3.967-4.443,7.918-8.907,12.194-13.066C423.772,448.519,428.342,444.918,433.095,441.616z"/>
		<path d="M568.251,644.596c-0.528-4.038-4.205-7-8.151-7c-0.385,0-0.766,0.025-1.146,0.086c-4.479,0.665-7.492,4.875-6.914,9.298
			c0.006,0.042,0.017,0.08,0.023,0.122c-0.306,1.037-0.388,2.136-0.108,3.238c1.126,4.454,2.08,8.973,4.164,13.122
			c0.625,1.253,1.349,2.456,2.109,3.64c0.652,1.465,1.376,2.891,2.11,4.311c1.283,2.486,2.582,4.956,4.433,7.061
			c1.821,2.059,3.845,3.901,5.818,5.813c-0.629-0.629-1.273-1.263-1.902-1.902c2.115,2.125,4.129,4.098,6.558,5.828
			c2.607,1.862,5.357,3.581,8.243,4.961c1.737,0.828,3.663,1.368,5.592,1.823c3.589,1.448,7.365,2.331,11.3,2.637
			c5.509,0.436,10.774-0.599,15.958-2.338c1.892-0.644,3.789-1.283,5.61-2.095c2.536-1.131,4.885-2.658,7.203-4.185
			c4.144-2.714,7.512-5.975,10.758-9.744c4.433-5.143,7.512-11.25,10.165-17.469c1.05-2.455,2.105-4.981,2.866-7.553
			c0.523-1.745,0.842-3.571,1.217-5.346c0.223-1.05,0.482-2.105,0.568-3.175c0.411-4.545-2.557-8.922-6.812-10.429
			c-1.116-0.396-2.283-0.588-3.449-0.588c-1.517,0-3.033,0.33-4.423,0.984c-2.196,1.045-4.732,3.348-5.265,5.853
			c-1.294,5.945-3.515,11.667-6.153,17.155c-1.63,2.939-3.559,5.689-5.688,8.286c-0.554,0.4-1.105,0.801-1.679,1.187
			c-1.618,1.101-3.226,2.212-4.879,3.251c-1.72,0.918-3.525,1.714-5.372,2.353c-0.771,0.152-1.557,0.249-2.344,0.294
			c-0.456,0.005-0.909,0.015-1.364,0.021c-0.886,0.011-1.773,0.02-2.659,0.04c-2.374-0.056-4.707-0.431-7.056-0.741
			c-2.023-0.259-4.073-0.487-6.087-0.867c-1.775-0.588-3.469-1.349-5.128-2.201c-1.39-0.954-2.628-2.11-3.931-3.18
			c-1.151-0.954-2.298-1.902-3.408-2.901c-1.339-1.562-2.455-3.343-3.617-5.037c-1.166-1.719-2.369-3.424-3.459-5.194
			c-0.009-0.016-0.017-0.033-0.026-0.049c-1.258-2.212-2.486-4.518-3.332-6.91C568.449,646.239,568.358,645.417,568.251,644.596z"/>
		<path d="M742.324,513.899c-7.492-26.812-35.344-42.496-62.157-35.004c-26.818,7.492-42.496,35.344-35.004,62.162
			c7.497,26.812,35.349,42.496,62.162,34.999C734.132,568.559,749.821,540.711,742.324,513.899z M684.756,512.573
			c-3.688-9.054,0.665-19.397,9.713-23.089c9.049-3.688,19.392,0.664,23.085,9.714c3.692,9.049-0.66,19.391-9.714,23.084
			C698.791,525.974,688.448,521.622,684.756,512.573z"/>
		<path d="M483.292,480.297c-26.818,7.492-42.496,35.344-35.004,62.157c7.497,26.812,35.349,42.501,62.162,35.004
			c26.812-7.497,42.496-35.349,34.999-62.162C537.957,488.484,510.104,472.8,483.292,480.297z M495.5,523.207
			c-7.949,3.241-17.033-0.578-20.275-8.532c-3.246-7.943,0.573-17.028,8.527-20.274c7.944-3.241,17.028,0.583,20.275,8.527
			C507.268,510.876,503.448,519.961,495.5,523.207z"/>
	</g>
</g>
</svg>
